<?xml version="1.0" encoding="utf-8"?>
<svg version="1.1" xmlns="http://www.w3.org/2000/svg" xmlns:xlink="http://www.w3.org/1999/xlink" x="0px"
	 y="0px" viewBox="0 0 1600 155.9" style="enable-background:new 0 0 1600 155.9;" xml:space="preserve">
<style type="text/css">
	.st0{fill:#ed3a24;}
</style>
<path class="st0" d="M514.1,118.3h11.5V0h-11.5V118.3z M231.3,118.3h11.5V50.9h-11.5V118.3z M0,118.3h11.5V50.9H0V118.3z
	 M590.5,49.1c-21.1,0-32.7,16.5-32.7,36.4c0,19.4,12.9,34.7,33,34.7c13.8,0,24.7-6.9,31.1-18.9l-9.7-5.6c-4.4,8-10.7,13.9-20.5,13.9
	c-13,0-21.9-10-22.1-22.5h52.9C623.6,67,612.1,49.1,590.5,49.1z M570.1,77.3c1.4-9.7,10.6-17.6,20.5-17.6c10,0,18.2,7.9,19.8,17.6
	H570.1z M453.4,49.1c-9.2,0-17.7,4.3-23.1,11.5H430V0h-11.5v118.3H430V109h0.3c5.4,7.3,13.9,11.2,23.2,11.2
	c19.8,0,32.3-16.8,32.3-35.6C485.8,65.6,473.5,49.1,453.4,49.1z M451.5,109.6c-14.3,0-22.1-12.5-22.1-25.7
	c0-12.6,8.6-24.2,21.9-24.2c14.2,0,22.7,10.9,22.7,24.4C474.1,97.7,466.3,109.6,451.5,109.6z M167.9,96.2l-20.1-45.3h-13.1
	l33.1,71.9l33-71.9H188L167.9,96.2z M309.4,78.9c-7.9-3.3-15.6-5.6-15.6-11.8c0-4.3,4.3-7.5,8.3-7.5c4.2,0,7.6,3.3,9.2,6.9l9.6-5
	c-3-7-10.2-12.5-17.9-12.5c-10.9,0-20.1,7.7-20.1,19.1c0,21.2,30.4,16.1,30.4,31.1c0,6.2-4.7,10.3-10.9,10.3
	c-7.6,0-10.9-4.4-13.8-10.8l-10.2,4.3c3.6,10.6,12.5,17.1,23.8,17.1c12.5,0,22.8-9.2,22.8-21.9C325,86.9,317.3,82.2,309.4,78.9z
	 M83.6,49.1c-8.3,0-14.5,3.6-19.2,10h-0.3v-8.2H52.6v67.4h11.5v-32c0-12.1,1-26.7,16.8-26.7c13.3,0,14.2,9.7,14.2,20.6v38h11.5v-40
	C106.6,62.5,102.3,49.1,83.6,49.1z M360.6,118.3H372V50.9h-11.5V118.3z M1342.1,118.3h11.5V0h-11.5V118.3z M1443.9,60.5h-0.3
	c-5.6-7.2-13.9-11.5-23.1-11.5c-20.2,0-32.4,16.5-32.4,35.7c0,18.7,12.5,35.4,32.3,35.4c9.5,0,17.4-3.7,23.2-11.2h0.3v9.3h11.5V50.9
	h-11.5V60.5z M1422,109.6c-14.4,0-22.1-12.5-22.1-25.7c0-12.6,8.6-24.2,21.9-24.2c14.2,0,22.7,10.9,22.7,24.4
	C1444.5,97.7,1436.8,109.6,1422,109.6z M1592,104.1c-4.5,0-8,3.6-8,7.9c0,4.4,3.6,8.2,8,8.2c4.4,0,8-3.7,8-8.2
	C1600,107.7,1596.4,104.1,1592,104.1z M1526.9,49.1c-9.2,0-17.7,4.3-23.1,11.5h-0.3V0H1492v118.3h11.5V109h0.3
	c5.4,7.3,13.9,11.2,23.2,11.2c19.8,0,32.3-16.8,32.3-35.6C1559.3,65.6,1547,49.1,1526.9,49.1z M1525,109.6
	c-14.3,0-22.1-12.5-22.1-25.7c0-12.6,8.6-24.2,21.9-24.2c14.2,0,22.7,10.9,22.7,24.4C1547.5,97.7,1539.8,109.6,1525,109.6z
	 M1243.9,78.9c-7.9-3.3-15.6-5.6-15.6-11.8c0-4.3,4.3-7.5,8.3-7.5c4.2,0,7.6,3.3,9.2,6.9l9.6-5c-3-7-10.2-12.5-17.9-12.5
	c-10.9,0-20.1,7.7-20.1,19.1c0,21.2,30.4,16.1,30.4,31.1c0,6.2-4.8,10.3-10.9,10.3c-7.6,0-10.9-4.4-13.8-10.8l-10.2,4.3
	c3.6,10.6,12.5,17.1,23.8,17.1c12.5,0,22.8-9.2,22.8-21.9C1259.6,86.9,1251.8,82.2,1243.9,78.9z M972.6,118.3h11.5V50.9h-11.5V118.3
	z M831.1,49.1c-21.1,0-32.7,16.5-32.7,36.4c0,19.4,12.9,34.7,33,34.7c13.8,0,24.7-6.9,31.1-18.9l-9.8-5.6
	c-4.4,8-10.8,13.9-20.5,13.9c-13,0-22-10-22.1-22.5H863C864.2,67,852.7,49.1,831.1,49.1z M810.7,77.3c1.4-9.7,10.6-17.6,20.5-17.6
	c10,0,18.2,7.9,19.8,17.6H810.7z M921.4,78.9c-7.9-3.3-15.6-5.6-15.6-11.8c0-4.3,4.3-7.5,8.3-7.5c4.2,0,7.6,3.3,9.2,6.9l9.6-5
	c-3-7-10.2-12.5-17.9-12.5c-10.9,0-20.1,7.7-20.1,19.1c0,21.2,30.4,16.1,30.4,31.1c0,6.2-4.8,10.3-10.9,10.3
	c-7.6,0-10.9-4.4-13.8-10.8l-10.2,4.3c3.6,10.6,12.5,17.1,23.8,17.1c12.5,0,22.8-9.2,22.8-21.9C937,86.9,929.3,82.2,921.4,78.9z
	 M1156.6,49.1c-8.3,0-14.5,3.6-19.2,10h-0.3v-8.2h-11.5v67.4h11.5v-32c0-12.1,1-26.7,16.8-26.7c13.3,0,14.2,9.7,14.2,20.6v38h11.5
	v-40C1179.5,62.5,1175.2,49.1,1156.6,49.1z M753.6,60.5h-0.3c-5.4-7.2-14.1-11.5-23.1-11.5c-20.2,0-32.4,16.5-32.4,35.7
	c0,18.7,12.5,35.4,32.3,35.4c9.2,0,17.6-3.9,23.2-11.2h0.3v9.3h11.5V0h-11.5V60.5z M731.6,109.6c-14.3,0-22.1-12.5-22.1-25.7
	c0-12.6,8.6-24.2,21.9-24.2c14.2,0,22.7,10.9,22.7,24.4C754.2,97.7,746.4,109.6,731.6,109.6z M1074.6,60.5h-0.3
	c-5.5-7.3-13.6-11.5-23-11.5c-20,0-32.6,16.9-32.6,35.9c0,18.8,12.5,35.3,32.1,35.3c9,0,17.9-4.2,23.4-11.2h0.3v8
	c0,15.2-3.9,28.3-21.7,28.3c-12.3,0-21.4-7.9-21.5-20.4h-11.5c0.4,19.1,14.3,31,33.1,31c10,0,19.8-3.9,26.1-11.9
	c6.9-8.9,6.9-18.2,6.9-29V50.9h-11.5V60.5z M1052.6,109.6c-14.4,0-22.1-12.5-22.1-25.7c0-12.6,8.6-24.2,22-24.2
	c14.2,0,22.7,10.9,22.7,24.4C1075.1,97.7,1067.4,109.6,1052.6,109.6z"/>
</svg>
