<svg xmlns="http://www.w3.org/2000/svg" viewBox="0 0 1600 155.9"><path d="M514.1 118.3h11.5V0h-11.5v118.3zm-282.8 0h11.5V50.9h-11.5v67.4zM0 118.3h11.5V50.9H0v67.4zm590.5-69.2c-21.1 0-32.7 16.5-32.7 36.4 0 19.4 12.9 34.7 33 34.7 13.8 0 24.7-6.9 31.1-18.9l-9.7-5.6c-4.4 8-10.7 13.9-20.5 13.9-13 0-21.9-10-22.1-22.5h52.9c1.1-20.1-10.4-38-32-38zm-20.4 28.2c1.4-9.7 10.6-17.6 20.5-17.6 10 0 18.2 7.9 19.8 17.6h-40.3zM453.4 49.1c-9.2 0-17.7 4.3-23.1 11.5h-.3V0h-11.5v118.3H430V109h.3c5.4 7.3 13.9 11.2 23.2 11.2 19.8 0 32.3-16.8 32.3-35.6 0-19-12.3-35.5-32.4-35.5zm-1.9 60.5c-14.3 0-22.1-12.5-22.1-25.7 0-12.6 8.6-24.2 21.9-24.2 14.2 0 22.7 10.9 22.7 24.4.1 13.6-7.7 25.5-22.5 25.5zM167.9 96.2l-20.1-45.3h-13.1l33.1 71.9 33-71.9H188l-20.1 45.3zm141.5-17.3c-7.9-3.3-15.6-5.6-15.6-11.8 0-4.3 4.3-7.5 8.3-7.5 4.2 0 7.6 3.3 9.2 6.9l9.6-5c-3-7-10.2-12.5-17.9-12.5-10.9 0-20.1 7.7-20.1 19.1 0 21.2 30.4 16.1 30.4 31.1 0 6.2-4.7 10.3-10.9 10.3-7.6 0-10.9-4.4-13.8-10.8l-10.2 4.3c3.6 10.6 12.5 17.1 23.8 17.1 12.5 0 22.8-9.2 22.8-21.9 0-11.3-7.7-16-15.6-19.3zM83.6 49.1c-8.3 0-14.5 3.6-19.2 10h-.3v-8.2H52.6v67.4h11.5v-32c0-12.1 1-26.7 16.8-26.7 13.3 0 14.2 9.7 14.2 20.6v38h11.5v-40c0-15.7-4.3-29.1-23-29.1zm277 69.2H372V50.9h-11.5v67.4zm981.5 0h11.5V0h-11.5v118.3zm101.8-57.8h-.3c-5.6-7.2-13.9-11.5-23.1-11.5-20.2 0-32.4 16.5-32.4 35.7 0 18.7 12.5 35.4 32.3 35.4 9.5 0 17.4-3.7 23.2-11.2h.3v9.3h11.5V50.9h-11.5v9.6zm-21.9 49.1c-14.4 0-22.1-12.5-22.1-25.7 0-12.6 8.6-24.2 21.9-24.2 14.2 0 22.7 10.9 22.7 24.4 0 13.6-7.7 25.5-22.5 25.5zm170-5.5c-4.5 0-8 3.6-8 7.9 0 4.4 3.6 8.2 8 8.2s8-3.7 8-8.2c0-4.3-3.6-7.9-8-7.9zm-65.1-55c-9.2 0-17.7 4.3-23.1 11.5h-.3V0H1492v118.3h11.5V109h.3c5.4 7.3 13.9 11.2 23.2 11.2 19.8 0 32.3-16.8 32.3-35.6 0-19-12.3-35.5-32.4-35.5zm-1.9 60.5c-14.3 0-22.1-12.5-22.1-25.7 0-12.6 8.6-24.2 21.9-24.2 14.2 0 22.7 10.9 22.7 24.4 0 13.6-7.7 25.5-22.5 25.5zm-281.1-30.7c-7.9-3.3-15.6-5.6-15.6-11.8 0-4.3 4.3-7.5 8.3-7.5 4.2 0 7.6 3.3 9.2 6.9l9.6-5c-3-7-10.2-12.5-17.9-12.5-10.9 0-20.1 7.7-20.1 19.1 0 21.2 30.4 16.1 30.4 31.1 0 6.2-4.8 10.3-10.9 10.3-7.6 0-10.9-4.4-13.8-10.8l-10.2 4.3c3.6 10.6 12.5 17.1 23.8 17.1 12.5 0 22.8-9.2 22.8-21.9.1-11.3-7.7-16-15.6-19.3zm-271.3 39.4h11.5V50.9h-11.5v67.4zM831.1 49.1c-21.1 0-32.7 16.5-32.7 36.4 0 19.4 12.9 34.7 33 34.7 13.8 0 24.7-6.9 31.1-18.9l-9.8-5.6c-4.4 8-10.8 13.9-20.5 13.9-13 0-22-10-22.1-22.5H863c1.2-20.1-10.3-38-31.9-38zm-20.4 28.2c1.4-9.7 10.6-17.6 20.5-17.6 10 0 18.2 7.9 19.8 17.6h-40.3zm110.7 1.6c-7.9-3.3-15.6-5.6-15.6-11.8 0-4.3 4.3-7.5 8.3-7.5 4.2 0 7.6 3.3 9.2 6.9l9.6-5c-3-7-10.2-12.5-17.9-12.5-10.9 0-20.1 7.7-20.1 19.1 0 21.2 30.4 16.1 30.4 31.1 0 6.2-4.8 10.3-10.9 10.3-7.6 0-10.9-4.4-13.8-10.8l-10.2 4.3c3.6 10.6 12.5 17.1 23.8 17.1 12.5 0 22.8-9.2 22.8-21.9 0-11.3-7.7-16-15.6-19.3zm235.2-29.8c-8.3 0-14.5 3.6-19.2 10h-.3v-8.2h-11.5v67.4h11.5v-32c0-12.1 1-26.7 16.8-26.7 13.3 0 14.2 9.7 14.2 20.6v38h11.5v-40c-.1-15.7-4.4-29.1-23-29.1zm-403 11.4h-.3c-5.4-7.2-14.1-11.5-23.1-11.5-20.2 0-32.4 16.5-32.4 35.7 0 18.7 12.5 35.4 32.3 35.4 9.2 0 17.6-3.9 23.2-11.2h.3v9.3h11.5V0h-11.5v60.5zm-22 49.1c-14.3 0-22.1-12.5-22.1-25.7 0-12.6 8.6-24.2 21.9-24.2 14.2 0 22.7 10.9 22.7 24.4.1 13.6-7.7 25.5-22.5 25.5zm343-49.1h-.3c-5.5-7.3-13.6-11.5-23-11.5-20 0-32.6 16.9-32.6 35.9 0 18.8 12.5 35.3 32.1 35.3 9 0 17.9-4.2 23.4-11.2h.3v8c0 15.2-3.9 28.3-21.7 28.3-12.3 0-21.4-7.9-21.5-20.4h-11.5c.4 19.1 14.3 31 33.1 31 10 0 19.8-3.9 26.1-11.9 6.9-8.9 6.9-18.2 6.9-29V50.9h-11.5v9.6zm-22 49.1c-14.4 0-22.1-12.5-22.1-25.7 0-12.6 8.6-24.2 22-24.2 14.2 0 22.7 10.9 22.7 24.4-.1 13.6-7.8 25.5-22.6 25.5z" fill="#ed3a24"/></svg>