<svg xmlns="http://www.w3.org/2000/svg" width="508.49" height="352.28"><g data-name="レイヤー 1"><path fill="#fff" d="M0 0h508.49v352.28H0z"/><text transform="translate(166.99 183.97)" fill="#ed3a24" font-size="20.75" font-family="Futura-MediumItalic,Futura" font-style="italic" letter-spacing=".5em">ADD YOURSELF</text><path d="M86.32 175.39v2h-10.4v10.37H74V177.4H63.6v-2h10.39L74 165h1.93v10.4zm39.42 2.5a21 21 0 0 0 5.2-14.23c0-7.76-4.32-15.59-14-15.59-8.33 0-13.92 6.27-13.92 15.59a21 21 0 0 0 5.21 14.24 11.55 11.55 0 0 0-8.07 11v4.6h33.63v-4.6a11.54 11.54 0 0 0-8.05-11.01zM117 149.11c7.85 0 12.92 5.71 12.92 14.55 0 5.57-2 10.84-5.45 14.09a10.28 10.28 0 0 1-14.9 0c-3.42-3.25-5.46-8.52-5.46-14.1-.02-8.83 5.04-14.54 12.89-14.54zm15.82 43.37h-31.58v-3.57a10.57 10.57 0 0 1 7.81-10.21 11.26 11.26 0 0 0 15.91 0 10.54 10.54 0 0 1 7.84 10.21z" fill="#ed3a24"/></g></svg>