<svg xmlns="http://www.w3.org/2000/svg" width="508.49" height="352.28"><g data-name="レイヤー 1"><path fill="#ed3a24" d="M0 0h508.49v352.28H0z"/><text transform="translate(211.93 176.14)" font-size="10" fill="#fff" font-family="KozGoPr6N-Regular-83pv-RKSJ-H,Kozuka Gothic Pr6N" letter-spacing=".2em">顔を正面に向け <tspan x="84" y="0" letter-spacing="-.3em">、</tspan> <tspan x="-20.5" y="17.5">枠内に合わせてください</tspan></text><path fill="none" stroke="#fff" stroke-miterlimit="10" stroke-width=".79" stroke-dasharray="9.41 9.41" d="M141.57 164.62l4.42-27.3 4.41-27.3 12.04-19.81 12.04-19.8 17.88-12.06 17.88-12.07 21.91-4.07 21.92-4.08 21.94 4.08 21.94 4.07 17.94 12.07 17.94 12.06 12.1 19.8 12.11 19.81 4.44 27.3 4.44 27.3-4.43 29.1-4.43 29.1-12.07 23.77-12.07 23.76-17.91 16.03-17.91 16.02-21.93 5.88-21.92 5.87-21.93-5.87-21.93-5.88-17.91-16.02-17.91-16.03-12.07-23.76-12.07-23.77-4.43-29.1-4.43-29.1z"/></g></svg>