<svg xmlns="http://www.w3.org/2000/svg" width="508.49" height="352.28"><defs><style>.cls-2{fill:none;stroke:#fff;stroke-miterlimit:10}.cls-5{opacity:.35}.cls-6{font-size:10px;font-family:Futura-Medium,Futura;letter-spacing:.2em;fill:#fff}</style></defs><g id="レイヤー_1-2" data-name="レイヤー 1"><path fill="#ed3a24" d="M0 0h508.49v352.28H0z"/><circle class="cls-2" cx="360.4" cy="168.83" r="61.13"/><path d="M383.92 155.29V199a5.68 5.68 0 0 1-5.68 5.69h-37.33a5.68 5.68 0 0 1-5.68-5.69v-50.81a5.68 5.68 0 0 1 5.68-5.68h32.36" stroke-linecap="round" fill="none" stroke="#fff" stroke-miterlimit="10"/><path class="cls-2" d="M368.54 187.65a12.37 12.37 0 0 1-17.91 0 12.73 12.73 0 0 0-9.72 12.35v4.69h37.38V200a12.74 12.74 0 0 0-9.75-12.35z"/><path class="cls-2" d="M368.54 187.65c3.88-3.71 6.43-9.75 6.43-16.58 0-11.29-6.92-17.28-15.42-17.28s-15.36 6-15.36 17.28c0 6.84 2.54 12.88 6.44 16.59"/><path d="M383.92 145.37v-17.75m6.5 6.5l-6.5-6.5-6.5 6.5" stroke-linecap="round" stroke-width="2.01" fill="none" stroke="#fff" stroke-miterlimit="10"/><g class="cls-5"><text class="cls-6" transform="translate(93.01 252.51)">From WebCamera</text></g><text class="cls-6" transform="translate(324.84 252.51)">From Photo</text><g class="cls-5"><circle class="cls-2" cx="148.09" cy="168.26" r="61.13"/><rect class="cls-2" x="123.46" y="143.63" width="49.26" height="49.26" rx="8.11" ry="8.11"/><circle class="cls-2" cx="148.09" cy="168.26" r="12.55"/><circle cx="148.09" cy="168.26" r="10.51" fill="#fff"/></g></g></svg>