<svg xmlns="http://www.w3.org/2000/svg" width="508.49" height="352.28"><defs><style>.cls-3,.cls-4{fill:none;stroke:#fff;stroke-miterlimit:10}.cls-3{stroke-linecap:round}.cls-3,.cls-4{stroke-width:.8px}.cls-6{fill:#fff}</style></defs><g id="レイヤー_1-2" data-name="レイヤー 1"><path fill="#ed3a24" d="M0 0h508.49v352.28H0z"/><circle cx="254.24" cy="180.42" r="138.94" stroke-width=".6" stroke-dasharray="5.58 5.58 2.79 5.58 5.58 5.58" fill="none" stroke="#fff" stroke-miterlimit="10"/><path class="cls-3" d="M273 212.67v34.88a4.53 4.53 0 0 1-4.53 4.53H238.7a4.53 4.53 0 0 1-4.53-4.53V207a4.53 4.53 0 0 1 4.53-4.53h25.8"/><path class="cls-4" d="M260.73 238.48a9.87 9.87 0 0 1-14.28 0 10.14 10.14 0 0 0-7.75 9.85v3.74h29.8v-3.74a10.14 10.14 0 0 0-7.77-9.85z"/><path class="cls-4" d="M260.73 238.48a18.33 18.33 0 0 0 5.13-13.23c0-9-5.52-13.77-12.3-13.77s-12.25 4.78-12.25 13.77c0 5.46 2 10.28 5.14 13.24"/><path d="M273 204.76v-14.15m5.18 5.19l-5.18-5.19-5.19 5.19" stroke-width="1.6" stroke-linecap="round" fill="none" stroke="#fff" stroke-miterlimit="10"/><path class="cls-6" d="M158.5 143.22v-12h2.5a9.16 9.16 0 0 1 2.87.36 5.41 5.41 0 0 1 2.05 1.19 5.75 5.75 0 0 1 1.86 4.46 5.88 5.88 0 0 1-4 5.68 9.46 9.46 0 0 1-2.83.33zm1.81-1.7h.82a6.82 6.82 0 0 0 2-.26 4.14 4.14 0 0 0 2.81-4 4.19 4.19 0 0 0-1.33-3.21 5 5 0 0 0-3.51-1.1h-.82zm17.03-3.42l3.72 5.12h-2.22l-3.43-4.92h-.33v4.92h-1.81v-12h2.12a5.39 5.39 0 0 1 3.45.89 3.33 3.33 0 0 1 1.16 2.64 3.38 3.38 0 0 1-.73 2.19 3.28 3.28 0 0 1-1.93 1.16zm-2.26-1.38h.58c1.72 0 2.58-.66 2.58-2s-.84-1.85-2.51-1.85h-.65zm10.38.43a5.9 5.9 0 0 1 1.86-4.36 6.13 6.13 0 0 1 4.45-1.82 6.3 6.3 0 0 1 6.26 6.25 5.89 5.89 0 0 1-1.86 4.4 6.34 6.34 0 0 1-8.67.21 5.92 5.92 0 0 1-2.04-4.68zm1.83 0a4.46 4.46 0 0 0 7.61 3.25 4.44 4.44 0 0 0 1.3-3.22 4.38 4.38 0 0 0-1.29-3.22 4.2 4.2 0 0 0-3.16-1.31 4.26 4.26 0 0 0-3.17 1.31 4.33 4.33 0 0 0-1.29 3.22zm18.02 1.19v4.88h-1.81v-12h2.05a9.38 9.38 0 0 1 2.29.21 3.12 3.12 0 0 1 1.37.79 3.44 3.44 0 0 1 1 2.56 3.3 3.3 0 0 1-1.1 2.61 4.37 4.37 0 0 1-3 1zm0-1.68h.69c1.67 0 2.5-.64 2.5-1.93s-.86-1.86-2.58-1.86h-.6zm19.92 1.68v4.88h-1.82v-12h2.06a9.34 9.34 0 0 1 2.28.21 3.07 3.07 0 0 1 1.37.79 3.44 3.44 0 0 1 1 2.56 3.27 3.27 0 0 1-1.1 2.61 4.35 4.35 0 0 1-3 1zm0-1.68h.67c1.67 0 2.5-.64 2.5-1.93s-.86-1.86-2.57-1.86h-.6zm11.77-.76h5.18v-4.7H244v12h-1.82v-5.61H237v5.61h-1.82v-12H237zm12.5 1.25a5.9 5.9 0 0 1 1.86-4.36 6.15 6.15 0 0 1 4.45-1.82 6.3 6.3 0 0 1 6.26 6.25 5.89 5.89 0 0 1-1.86 4.4 6.34 6.34 0 0 1-8.67.21 5.92 5.92 0 0 1-2.04-4.68zm1.83 0a4.36 4.36 0 0 0 1.34 3.28 4.44 4.44 0 0 0 6.27 0 4.44 4.44 0 0 0 1.3-3.22A4.38 4.38 0 0 0 259 134a4.2 4.2 0 0 0-3.16-1.31 4.26 4.26 0 0 0-3.17 1.31 4.33 4.33 0 0 0-1.34 3.18zm19.53-4.25v10.32H269V132.9h-2.76v-1.7h7.33v1.7zm6.96 4.25a5.9 5.9 0 0 1 1.86-4.36 6.15 6.15 0 0 1 4.46-1.82 6.22 6.22 0 0 1 4.4 10.65 6.36 6.36 0 0 1-8.68.21 5.92 5.92 0 0 1-2.04-4.68zm1.83 0a4.47 4.47 0 0 0 4.42 4.56 4.3 4.3 0 0 0 3.19-1.31 4.66 4.66 0 0 0 0-6.44 4.49 4.49 0 0 0-6.34 0 4.33 4.33 0 0 0-1.27 3.22zm26.14-1.25H311v-4.7h1.82v12H311v-5.61h-5.18v5.61H304v-12h1.82zm19.7-3h-4.82v2.89h4.68v1.71h-4.68v4h4.82v1.7h-6.63v-12h6.63zm9.65 5.2l3.72 5.12h-2.22l-3.43-4.92h-.33v4.92h-1.81v-12h2.12a5.33 5.33 0 0 1 3.44.89 3.31 3.31 0 0 1 1.17 2.64 3.38 3.38 0 0 1-.73 2.19 3.28 3.28 0 0 1-1.93 1.16zm-2.26-1.38h.58c1.71 0 2.57-.66 2.57-2s-.83-1.85-2.5-1.85h-.65zm17.61-3.82h-4.82v2.89h4.68v1.71h-4.68v4h4.82v1.7h-6.63v-12h6.63zm-148.3 32.43a2 2 0 1 1-2-2 2 2 0 0 1 2 2zm-.4 0a1.65 1.65 0 1 0-1.64 1.68 1.64 1.64 0 0 0 1.64-1.68zm4.88-1.96h.38v.51a.92.92 0 0 1 .87-.59.87.87 0 0 1 .41.09l-.19.35a.45.45 0 0 0-.29-.08c-.79 0-.8 1-.8 1.53v2.09h-.38zm14.54.92a1.74 1.74 0 0 0-1.34-.64 1.61 1.61 0 0 0-1.63 1.69 1.6 1.6 0 0 0 1.61 1.67 2 2 0 0 0 1.41-.69v.51a2.11 2.11 0 0 1-1.42.55 2 2 0 0 1 0-4.09 2 2 0 0 1 1.34.49zm4.84-3.99v7h-.38v-7zm4.57 1.77a.34.34 0 0 1 .35-.35.35.35 0 0 1 0 .7.34.34 0 0 1-.35-.35zm.54 1.3v3.9h-.38v-3.9zm7.84.92a1.78 1.78 0 0 0-1.35-.64 1.61 1.61 0 0 0-1.62 1.69 1.59 1.59 0 0 0 1.6 1.67 2 2 0 0 0 1.42-.69v.51a2.13 2.13 0 0 1-1.42.55 2 2 0 0 1 0-4.09 2 2 0 0 1 1.35.49zm4.85-3.99v4.7l1.6-1.67h.5l-1.65 1.69 2.18 2.21H246l-1.92-1.93-.2.2v1.73h-.39v-7zm12.74 3.44v3.53h-.38v-3.53h-.43v-.37h.43V162h.38v1.39h.68v.37zm8.64 1.59a2 2 0 1 1-2.05-2 2 2 0 0 1 2.05 2zm-.4 0a1.65 1.65 0 1 0-1.65 1.68 1.64 1.64 0 0 0 1.65-1.68zm12.17-1.24a.7.7 0 0 0-.68-.44.63.63 0 0 0-.66.62c0 .38.31.51.69.66a2.19 2.19 0 0 1 1 .57 1 1 0 0 1 .2.64 1.19 1.19 0 0 1-1.28 1.24 1.32 1.32 0 0 1-1.34-1l.37-.12a1 1 0 0 0 1 .78.83.83 0 0 0 .87-.86c0-.44-.27-.6-.87-.84a2 2 0 0 1-.85-.51.88.88 0 0 1-.17-.51 1 1 0 0 1 1-1 1.07 1.07 0 0 1 1 .63zm5 1.28a1.56 1.56 0 0 0 1.54 1.64 1.49 1.49 0 0 0 1.36-.88l.33.19a2.37 2.37 0 1 1 .1-.95zm2.93-.36a1.46 1.46 0 0 0-1.44-1.36A1.49 1.49 0 0 0 282 165zm5.26-4.71v7h-.39v-7zm4.88 5.07a1.56 1.56 0 0 0 1.55 1.64 1.48 1.48 0 0 0 1.35-.88l.33.19a2.37 2.37 0 1 1 .1-.95zM298 165a1.46 1.46 0 0 0-1.44-1.36 1.49 1.49 0 0 0-1.47 1.36zm8-.71a1.78 1.78 0 0 0-1.35-.64 1.61 1.61 0 0 0-1.62 1.69 1.59 1.59 0 0 0 1.6 1.67 2 2 0 0 0 1.42-.69v.51a2.14 2.14 0 0 1-1.43.55 2 2 0 0 1 0-4.09 2 2 0 0 1 1.35.49zm4.87-.55v3.53h-.38v-3.53h-.43v-.37h.43V162h.38v1.39h.68v.37z"/><path fill="none" stroke="#fff" stroke-miterlimit="10" d="M377.03 285.08l-34.48-39.9"/><path class="cls-6" d="M346.05 244.78l-9.29-6.3 4.89 10.1 4.4-3.8z"/><path class="cls-3" d="M416.82 320.03h-30.79v-38.21h24.58l6.21 6.53v31.68z"/><path class="cls-3" d="M417.15 288.35h-6.54v-6.53"/><path class="cls-4" d="M406.45 310.43a7 7 0 0 1-10.08 0 7.16 7.16 0 0 0-5.46 6.95V320h21v-2.64a7.16 7.16 0 0 0-5.46-6.93z"/><path class="cls-4" d="M406.45 310.43a12.9 12.9 0 0 0 3.62-9.33c0-6.35-3.89-9.72-8.68-9.72s-8.64 3.37-8.64 9.72a12.94 12.94 0 0 0 3.62 9.34"/></g></svg>