<svg xmlns="http://www.w3.org/2000/svg" width="750" height="1136.87"><path fill="#ed3a24" d="M0 0h750v1136.87H0z"/><path d="M318.64 559.72v8.13l-43.11.14.13 43h-8l-.13-43-43.11.13v-8.13l43.11-.13-.14-43.11h8l.14 43.12zm163.41 10.01c13.45-14.39 21.46-36 21.46-58.89 0-32.18-17.91-64.65-57.91-64.65-34.53 0-57.74 26-57.74 64.65 0 22.88 8 44.55 21.5 58.93a48 48 0 0 0-33.36 45.8v19.11h139.52v-19.11a48 48 0 0 0-33.47-45.84zM445.6 450.5c32.56 0 53.6 23.68 53.6 60.34 0 23.1-8.44 44.95-22.59 58.44-9.12 8.7-19.81 13.29-30.92 13.29s-21.78-4.57-30.89-13.26c-14.17-13.48-22.63-35.34-22.63-58.47 0-36.66 20.97-60.34 53.43-60.34zm65.62 179.87H380.34v-14.8a43.76 43.76 0 0 1 32.37-42.32c9.74 8.92 21.12 13.63 33 13.63s23.27-4.72 33-13.67a43.73 43.73 0 0 1 32.51 42.36z" fill="#fff"/></svg>