<svg xmlns="http://www.w3.org/2000/svg" width="750" height="1136.87"><defs><style>.cls-3{letter-spacing:.35em}.cls-4{letter-spacing:.33em}</style></defs><g id="design"><path fill="#ed3a24" d="M0 0h750v1136.87H0z"/><text transform="translate(304.87 544.26)" font-size="15.34" fill="#fff" font-family="KozGoPr6N-Medium-83pv-RKSJ-H,Kozuka Gothic Pr6N" letter-spacing=".31em">顔を <tspan class="cls-3" x="40.18" y="0">正</tspan> <tspan class="cls-4" x="60.88" y="0">面</tspan> <tspan x="81.28" y="0" letter-spacing=".32em">に</tspan> <tspan class="cls-4" x="101.52" y="0">向</tspan> <tspan x="121.91" y="0">け</tspan> <tspan x="142" y="0" letter-spacing="-.15em">、</tspan> <tspan class="cls-3"> <tspan x="-30.98" y="26.84">枠</tspan> <tspan class="cls-4" x="-10.28" y="26.84">内</tspan> <tspan x="10.12" y="26.84" letter-spacing=".32em">に合わ</tspan> <tspan x="70.85" y="26.84" letter-spacing=".28em">せ</tspan> <tspan x="90.48" y="26.84" letter-spacing=".19em">て</tspan> <tspan x="108.73" y="26.84" letter-spacing=".14em">く</tspan> <tspan x="126.21" y="26.84" letter-spacing=".29em">だ</tspan> <tspan x="145.99" y="26.84" letter-spacing=".27em">さ</tspan> <tspan x="165.46" y="26.84" letter-spacing=".34em">い</tspan> </tspan></text><path fill="none" stroke="#fff" stroke-miterlimit="10" stroke-width="1.13" stroke-dasharray="10.67 10.67 5.33 10.67 10.67 10.67" d="M132.37 519.44l9.5-58.79 9.51-58.79 25.93-42.65 25.93-42.64 38.5-25.98 38.49-25.97 47.2-8.78 47.19-8.77 47.25 8.77 47.25 8.78 38.63 25.97 38.63 25.98 26.06 42.64 26.06 42.65 9.57 58.79 9.56 58.79-9.53 62.67-9.53 62.67-26 51.18-26 51.17L508 781.64l-38.56 34.5-47.22 12.65L375 841.45l-47.22-12.66-47.22-12.65-38.56-34.5-38.57-34.51-26-51.17-25.99-51.18-9.54-62.67-9.53-62.67z"/></g></svg>