<svg xmlns="http://www.w3.org/2000/svg" width="750" height="1136.87"><defs><style>.cls-2{opacity:.35}.cls-3{fill:none;stroke:#fff;stroke-miterlimit:10;stroke-width:2.45px}.cls-4{font-size:24.49px;fill:#fff;font-family:Futura-Medium,Futura;letter-spacing:.2em}</style></defs><g id="design"><path fill="#ed3a24" d="M0 0h750v1136.87H0z"/><g class="cls-2"><circle class="cls-3" cx="375" cy="299.11" r="149.67"/><path class="cls-3" d="M248.74 379.43V277A29.35 29.35 0 0 1 278 247.71h194A29.35 29.35 0 0 1 501.26 277v102.43"/><path class="cls-3" d="M383.63 276.52a8.86 8.86 0 1 0-6.61 6.6 8.77 8.77 0 0 0 6.61-6.6zm89.97 135.14V304.89a5.8 5.8 0 0 0-5.79-5.78H282.19a5.8 5.8 0 0 0-5.79 5.78v106.77"/></g><g class="cls-2"><text class="cls-4" transform="translate(254.83 505.4)">From in-Camera</text></g><circle class="cls-3" cx="375" cy="784.82" r="149.67"/><path d="M432.58 751.66v107.09a13.91 13.91 0 0 1-13.91 13.91h-91.4a13.91 13.91 0 0 1-13.91-13.91V734.28a13.91 13.91 0 0 1 13.91-13.91h79.22" stroke-linecap="round" stroke-width="2.45" fill="none" stroke="#fff" stroke-miterlimit="10"/><path class="cls-3" d="M394.91 830.9c-6.18 5.9-13.74 9.41-21.94 9.41s-15.73-3.5-21.91-9.38a31.16 31.16 0 0 0-23.79 30.26v11.47h91.52v-11.47a31.18 31.18 0 0 0-23.88-30.29z"/><path class="cls-3" d="M394.91 830.9c9.52-9.07 15.75-23.86 15.75-40.61 0-27.62-16.94-42.3-37.75-42.3s-37.62 14.68-37.62 42.3c0 16.76 6.23 31.56 15.77 40.64"/><path d="M432.58 727.38v-43.46m15.92 15.92l-15.92-15.92-15.92 15.92" stroke-linecap="round" stroke-width="4.92" fill="none" stroke="#fff" stroke-miterlimit="10"/><text class="cls-4" transform="translate(287.92 989.71)">From Photo</text></g></svg>