<svg xmlns="http://www.w3.org/2000/svg" width="750" height="1136.87"><path fill="#ed3a24" d="M0 0h750v1136.87H0z"/><circle cx="375" cy="568.44" r="262.47" stroke-width="1.13" stroke-dasharray="10.54 10.54 5.27 10.54 10.54 10.54" fill="none" stroke="#fff" stroke-miterlimit="10"/><path d="M410.43 629.36v65.88a8.57 8.57 0 0 1-8.56 8.56h-56.23a8.57 8.57 0 0 1-8.56-8.56v-76.57a8.56 8.56 0 0 1 8.56-8.56h48.74" stroke-width="1.51" stroke-linecap="round" fill="none" stroke="#fff" stroke-miterlimit="10"/><path d="M387.25 678.1a18.63 18.63 0 0 1-27 0 19.18 19.18 0 0 0-14.63 18.62v7.06h56.3v-7.06a19.19 19.19 0 0 0-14.67-18.62zm0 0c5.86-5.58 9.69-14.68 9.69-25 0-17-10.42-26-23.22-26s-23.15 9-23.15 26c0 10.31 3.84 19.42 9.7 25" stroke-width="1.51" fill="none" stroke="#fff" stroke-miterlimit="10"/><path d="M410.43 614.42v-26.74m9.79 9.8l-9.79-9.8-9.8 9.8" stroke-width="3.02" stroke-linecap="round" fill="none" stroke="#fff" stroke-miterlimit="10"/><text transform="translate(216.32 498.16)" font-size="22.59" fill="#fff" font-family="Futura-Medium,Futura" letter-spacing=".2em">TAP to SELECT PHOTO</text></svg>