<svg xmlns="http://www.w3.org/2000/svg" width="750" height="1136.87"><path fill="#ed3a24" d="M0 0h750v1136.87H0z"/><text transform="translate(253.81 557.76)" font-size="15.34" fill="#fff" font-family="KozGoPr6N-Medium-83pv-RKSJ-H,Kozuka Gothic Pr6N" letter-spacing=".31em">顔を <tspan x="40.18" y="0" letter-spacing=".35em">枠</tspan> <tspan x="60.88" y="0" letter-spacing=".33em">内</tspan> <tspan x="81.28" y="0" letter-spacing=".32em">に合わ</tspan> <tspan x="142" y="0" letter-spacing=".28em">せ</tspan> <tspan x="161.63" y="0" letter-spacing=".19em">て</tspan> <tspan x="179.88" y="0" letter-spacing=".14em">く</tspan> <tspan x="197.36" y="0" letter-spacing=".29em">だ</tspan> <tspan x="217.14" y="0" letter-spacing=".27em">さ</tspan> <tspan x="236.62" y="0" letter-spacing=".34em">い</tspan></text><path fill="none" stroke="#fff" stroke-miterlimit="10" stroke-width="1.13" stroke-dasharray="10.67 10.67 5.33 10.67 10.67 10.67" d="M132.37 519.44l9.51-58.79 9.5-58.79 25.93-42.65 25.94-42.64 38.49-25.98 38.5-25.97 47.19-8.78 47.19-8.77 47.25 8.77 47.25 8.78 38.63 25.97 38.63 25.98 26.06 42.64 26.07 42.65 9.56 58.79 9.56 58.79-9.53 62.67-9.53 62.67-26 51.18-26 51.17-38.56 34.51-38.56 34.5-47.22 12.65L375 841.45l-47.22-12.66-47.22-12.65-38.56-34.5-38.56-34.51-26-51.17-26-51.18-9.53-62.67-9.54-62.67z"/></svg>