<svg xmlns="http://www.w3.org/2000/svg" width="174.46" height="174.46"><defs><style>.cls-1{fill:#ed3a24}</style></defs><g id="レイヤー_2" data-name="レイヤー 2"><g id="design"><path class="cls-1" d="M87.23 174.46a87.23 87.23 0 1 1 87.23-87.23 87.33 87.33 0 0 1-87.23 87.23zm0-173A85.81 85.81 0 1 0 173 87.23 85.9 85.9 0 0 0 87.23 1.42z"/><path class="cls-1" d="M160.92 133.66h-1.41V74.43a16.23 16.23 0 0 0-16.21-16.21H31.16A16.23 16.23 0 0 0 15 74.43v59.23h-1.47V74.43a17.64 17.64 0 0 1 17.63-17.62H143.3a17.63 17.63 0 0 1 17.62 17.62z"/><path class="cls-1" d="M87.24 78.82a5.79 5.79 0 0 1-4.13-1.7 5.86 5.86 0 0 1-1.56-5.45 5.76 5.76 0 0 1 4.35-4.35 5.84 5.84 0 0 1 7 7 5.75 5.75 0 0 1-4.36 4.35 5.84 5.84 0 0 1-1.3.15zm0-10.23a4.86 4.86 0 0 0-1 .11 4.4 4.4 0 0 0-3.31 3.3 4.42 4.42 0 0 0 8.6 2 4.49 4.49 0 0 0-1.18-4.14 4.41 4.41 0 0 0-3.14-1.27zm57.69 83.7h-1.41V90.57a2.64 2.64 0 0 0-2.64-2.63H33.58a2.64 2.64 0 0 0-2.64 2.63v61.72h-1.42V90.57a4.06 4.06 0 0 1 4.06-4h107.3a4.05 4.05 0 0 1 4.05 4z"/></g></g></svg>