<svg xmlns="http://www.w3.org/2000/svg" width="174.46" height="174.46"><defs><style>.cls-1{fill:#ed3a24}</style></defs><g id="レイヤー_2" data-name="レイヤー 2"><g id="design"><path class="cls-1" d="M87.23 174.46a87.23 87.23 0 1 1 87.23-87.23 87.33 87.33 0 0 1-87.23 87.23zm0-173A85.81 85.81 0 1 0 173 87.23 85.9 85.9 0 0 0 87.23 1.42z"/><path class="cls-1" d="M112.47 138.72H59.64a8.76 8.76 0 0 1-8.75-8.72V58a8.76 8.76 0 0 1 8.75-8.75h45.79a.71.71 0 0 1 0 1.42H59.64A7.34 7.34 0 0 0 52.3 58v72a7.34 7.34 0 0 0 7.34 7.33h52.83a7.34 7.34 0 0 0 7.34-7.33V68.06a.71.71 0 1 1 1.41 0V130a8.76 8.76 0 0 1-8.75 8.72z"/><path class="cls-1" d="M113.25 138.72H58.93v-7.34a18.67 18.67 0 0 1 14.29-18.18l.38-.1.28.27a16.8 16.8 0 0 0 24.37 0l.28-.27.37.09a18.67 18.67 0 0 1 14.35 18.2zm-52.9-1.42h51.48v-5.92a17.25 17.25 0 0 0-12.89-16.73 18.17 18.17 0 0 1-25.75 0 17.26 17.26 0 0 0-12.84 16.71z"/><path class="cls-1" d="M72.9 114.4c-5.85-5.57-9.34-14.54-9.34-24 0-15 9-25.16 22.46-25.16s22.53 10.11 22.53 25.16c0 9.46-3.49 18.43-9.32 24l-1-1c5.56-5.31 8.88-13.89 8.88-23C107.13 76 98.85 66.65 86 66.65S65 76 65 90.39c0 9.09 3.32 17.68 8.9 23zm47.62-58.96a1.42 1.42 0 0 1-1.43-1.44V28.9a1.43 1.43 0 0 1 2.85 0V54a1.42 1.42 0 0 1-1.42 1.44z"/><path class="cls-1" d="M129.72 39.52a1.41 1.41 0 0 1-1-.41l-8.19-8.2-8.2 8.2a1.43 1.43 0 0 1-2 0 1.41 1.41 0 0 1 0-2l10.21-10.21 10.2 10.21a1.41 1.41 0 0 1 0 2 1.38 1.38 0 0 1-1.02.41z"/></g></g></svg>