<svg xmlns="http://www.w3.org/2000/svg" width="174.46" height="174.46"><defs><style>.cls-1{fill:none;stroke:#fff;stroke-miterlimit:10;stroke-width:1.42px}</style></defs><g id="レイヤー_2" data-name="レイヤー 2"><g id="design"><circle class="cls-1" cx="87.23" cy="87.23" r="86.52"/><path d="M120.52 68.06V130a8 8 0 0 1-8 8H59.64a8 8 0 0 1-8-8V58a8 8 0 0 1 8-8h45.79" stroke-linecap="round" stroke-width="1.42" fill="none" stroke="#fff" stroke-miterlimit="10"/><path class="cls-1" d="M98.74 113.87a17.5 17.5 0 0 1-25.35 0 18 18 0 0 0-13.75 17.5V138h52.9v-6.63a18 18 0 0 0-13.8-17.5z"/><path class="cls-1" d="M98.74 113.87c5.5-5.25 9.1-13.8 9.1-23.48 0-16-9.79-24.45-21.82-24.45s-21.75 8.49-21.75 24.45c0 9.69 3.61 18.25 9.12 23.49"/><path d="M120.52 54.02V28.9m9.2 9.2l-9.2-9.2-9.21 9.2" stroke-linecap="round" stroke-width="2.84" fill="none" stroke="#fff" stroke-miterlimit="10"/></g></g></svg>