<svg xmlns="http://www.w3.org/2000/svg" width="464.49" height="925.04"><path d="M0 917.71h14.49m-7.25-7.16v14.49M150 917.71h14.49m-7.25-7.16v14.49M300 917.71h14.49m-7.25-7.16v14.49M450 917.71h14.49m-7.25-7.16v14.49M0 803.89h14.49m-7.25-7.16v14.49M150 803.89h14.49m-7.25-7.16v14.49M300 803.89h14.49m-7.25-7.16v14.49M450 803.89h14.49m-7.25-7.16v14.49M0 690.07h14.49m-7.25-7.16v14.49M150 690.07h14.49m-7.25-7.16v14.49M300 690.07h14.49m-7.25-7.16v14.49M450 690.07h14.49m-7.25-7.16v14.49M0 576.25h14.49m-7.25-7.16v14.49M150 576.25h14.49m-7.25-7.16v14.49M300 576.25h14.49m-7.25-7.16v14.49M450 576.25h14.49m-7.25-7.16v14.49M0 462.44h14.49m-7.25-7.17v14.49M150 462.44h14.49m-7.25-7.17v14.49M300 462.44h14.49m-7.25-7.17v14.49M450 462.44h14.49m-7.25-7.17v14.49M0 348.62h14.49m-7.25-7.16v14.49M150 348.62h14.49m-7.25-7.16v14.49M300 348.62h14.49m-7.25-7.16v14.49M450 348.62h14.49m-7.25-7.16v14.49M0 234.8h14.49m-7.25-7.16v14.49M150 234.8h14.49m-7.25-7.16v14.49M300 234.8h14.49m-7.25-7.16v14.49M450 234.8h14.49m-7.25-7.16v14.49M0 120.98h14.49m-7.25-7.16v14.49M150 120.98h14.49m-7.25-7.16v14.49M300 120.98h14.49m-7.25-7.16v14.49M450 120.98h14.49m-7.25-7.16v14.49M0 7.16h14.49M7.24 0v14.49M150 7.16h14.49M157.24 0v14.49M300 7.16h14.49M307.24 0v14.49M450 7.16h14.49M457.24 0v14.49" fill="none" stroke="#fff" stroke-miterlimit="10" stroke-width=".58" data-name="レイヤー 2"/></svg>