<svg xmlns="http://www.w3.org/2000/svg" width="97.48" height="74.71"><defs><style>.cls-1{fill:#ed3a24}</style></defs><g id="レイヤー_2" data-name="レイヤー 2"><g id="design"><path class="cls-1" d="M48.74 0L37.21 12.77h23.06L48.74 0z"/><rect class="cls-1" y="27.67" width="13.81" height="13.81" rx="1.87" ry="1.87"/><rect class="cls-1" y="60.9" width="13.81" height="13.81" rx="1.87" ry="1.87"/><rect class="cls-1" x="83.67" y="60.9" width="13.81" height="13.81" rx="1.87" ry="1.87"/><rect class="cls-1" x="16.73" y="27.67" width="13.81" height="13.81" rx="1.87" ry="1.87"/><rect class="cls-1" x="33.47" y="27.67" width="13.81" height="13.81" rx="1.87" ry="1.87"/><rect class="cls-1" x="50.2" y="27.67" width="13.81" height="13.81" rx="1.87" ry="1.87"/><rect class="cls-1" x="66.93" y="27.67" width="13.81" height="13.81" rx="1.87" ry="1.87"/><rect class="cls-1" x="83.67" y="27.67" width="13.81" height="13.81" rx="1.87" ry="1.87"/><rect class="cls-1" x="58.72" y="44.29" width="13.81" height="13.81" rx="1.87" ry="1.87"/><rect class="cls-1" x="75.45" y="44.29" width="22.02" height="13.81" rx="1.87" ry="1.87"/><rect class="cls-1" x="16.73" y="60.9" width="64.01" height="13.81" rx="1.87" ry="1.87"/><rect class="cls-1" y="44.29" width="22.02" height="13.81" rx="1.87" ry="1.87"/><rect class="cls-1" x="25.25" y="44.29" width="13.81" height="13.81" rx="1.87" ry="1.87"/><rect class="cls-1" x="41.99" y="44.29" width="13.81" height="13.81" rx="1.87" ry="1.87"/></g></g></svg>