<svg xmlns="http://www.w3.org/2000/svg" width="349.25" height="349.25"><defs><style>.cls-3{fill:none;stroke:#fff;stroke-miterlimit:10}</style></defs><g id="レイヤー_2" data-name="レイヤー 2"><g id="design"><circle cx="174.62" cy="174.62" r="174.25" stroke-width=".75" stroke-dasharray="7 7 3.5 7 7 7" fill="none" stroke="#fff" stroke-miterlimit="10"/><path d="M198.14 215.07v43.74a5.68 5.68 0 0 1-5.68 5.68h-37.33a5.68 5.68 0 0 1-5.68-5.68V208a5.68 5.68 0 0 1 5.68-5.68h32.36" stroke-linecap="round" fill="none" stroke="#fff" stroke-miterlimit="10"/><path class="cls-3" d="M182.76 247.43a12.37 12.37 0 0 1-17.91 0 12.73 12.73 0 0 0-9.72 12.36v4.69h37.38v-4.68a12.74 12.74 0 0 0-9.75-12.37z"/><path class="cls-3" d="M182.76 247.43c3.88-3.7 6.43-9.74 6.43-16.58 0-11.28-6.92-17.28-15.42-17.28s-15.37 6-15.37 17.28c0 6.84 2.55 12.89 6.45 16.59"/><path d="M198.14 205.15V187.4m6.5 6.51l-6.5-6.51-6.5 6.51" stroke-linecap="round" stroke-width="2.01" fill="none" stroke="#fff" stroke-miterlimit="10"/></g></g></svg>