<svg xmlns="http://www.w3.org/2000/svg" width="32.49" height="25.99"><path d="M32.49 3.08a14.08 14.08 0 0 1-3.82 1 6.59 6.59 0 0 0 2.94-3.6 13.78 13.78 0 0 1-4.25 1.6 6.69 6.69 0 0 0-11.54 4.47 7.15 7.15 0 0 0 .18 1.5A18.92 18.92 0 0 1 2.27 1.2a6.6 6.6 0 0 0-.91 3.29 6.53 6.53 0 0 0 3 5.46 6.3 6.3 0 0 1-3-.81v.09a6.17 6.17 0 0 0 .46 2.36 6.68 6.68 0 0 0 4.9 4.06 6.92 6.92 0 0 1-1.76.24 5.7 5.7 0 0 1-1.25-.14 6.71 6.71 0 0 0 6.22 4.58 13.5 13.5 0 0 1-8.27 2.8A14.44 14.44 0 0 1 0 23a19.17 19.17 0 0 0 10.22 3 18.54 18.54 0 0 0 18.51-14.7 17.5 17.5 0 0 0 .45-4v-.82a13.71 13.71 0 0 0 3.31-3.4z" fill="#ff1900" fill-rule="evenodd" data-name="レイヤー 2"/></svg>