<svg xmlns="http://www.w3.org/2000/svg" width="182.53" height="21.9"><g data-name="レイヤー 2"><g data-name="レイヤー 1" fill="#ed3a24"><text transform="translate(49.82 17.29)" font-size="10" font-family="Futura-MediumItalic,Futura" font-style="italic" letter-spacing=".5em">ADD YOURSELF</text><path d="M11 13.16v.95H6v5H5v-5H0v-.91h5v-5h.93v5zm18.94 1.21a10.15 10.15 0 0 0 2.51-6.86c0-3.74-2.08-7.51-6.73-7.51C21.71 0 19 3 19 7.51a10.07 10.07 0 0 0 2.52 6.86 5.56 5.56 0 0 0-3.89 5.31v2.22h16.2v-2.22a5.55 5.55 0 0 0-3.89-5.31zM25.72.5C29.5.5 32 3.25 32 7.51a9.46 9.46 0 0 1-2.63 6.79 5 5 0 0 1-7.18 0 9.47 9.47 0 0 1-2.63-6.79C19.51 3.25 22 .5 25.72.5zm7.62 20.9h-15.2v-1.72a5.09 5.09 0 0 1 3.76-4.92 5.44 5.44 0 0 0 7.67 0 5.07 5.07 0 0 1 3.77 4.92z"/></g></g></svg>