<svg xmlns="http://www.w3.org/2000/svg" width="123.25" height="123.25"><defs><style>.cls-2{fill:#fff}</style></defs><g id="レイヤー_2" data-name="レイヤー 2"><g id="レイヤー_1-2" data-name="レイヤー 1"><circle cx="61.63" cy="61.63" r="61.13" fill="none" stroke="#fff" stroke-miterlimit="10"/><path class="cls-2" d="M85.14 47.58a.51.51 0 0 0-.5.5v43.74A5.17 5.17 0 0 1 80 97v-4.18a13.18 13.18 0 0 0-9.3-12.62c3.76-4 6-10 6-16.34 0-10.63-6.4-17.78-15.92-17.78s-15.87 7.15-15.87 17.78c0 6.36 2.23 12.39 6 16.35a13.19 13.19 0 0 0-9.27 12.61V97A5.16 5.16 0 0 1 37 91.82V41a5.2 5.2 0 0 1 5.18-5.19h32.31a.5.5 0 0 0 .5-.5.51.51 0 0 0-.5-.5H42.13A6.2 6.2 0 0 0 36 41v50.82A6.19 6.19 0 0 0 41.63 98H80a6.19 6.19 0 0 0 5.63-6.16V48.08a.5.5 0 0 0-.49-.5zm-24.37-.5c9.06 0 14.92 6.59 14.92 16.78 0 6.41-2.35 12.48-6.28 16.22a11.86 11.86 0 0 1-17.22 0c-3.93-3.74-6.28-9.81-6.28-16.23 0-10.18 5.83-16.77 14.86-16.77zM42.63 97v-4.18A12.2 12.2 0 0 1 51.71 81a12.82 12.82 0 0 0 18.19 0A12.18 12.18 0 0 1 79 92.82V97zm42.51-57.83a1 1 0 0 1-1-1V20.42a1 1 0 1 1 2 0v17.75a1 1 0 0 1-1 1z"/><path class="cls-2" d="M91.64 27.92a1 1 0 0 1-.71-.29l-5.79-5.79-5.79 5.79a1 1 0 1 1-1.42-1.42L85.14 19l7.21 7.21a1 1 0 0 1 0 1.42 1 1 0 0 1-.71.29z"/></g></g></svg>