<svg xmlns="http://www.w3.org/2000/svg" width="396.4" height="38.63"><g data-name="レイヤー 2"><path d="M2.85 29.32H0V12.61h2.85zm13.03-14.68H16a5.6 5.6 0 0 1 4.76-2.49c4.62 0 5.69 3.34 5.69 7.25v9.92h-2.89V19.9c0-2.7-.21-5.12-3.52-5.12-3.91 0-4.16 3.63-4.16 6.61v7.93H13V12.61h2.84zm25.73 9.2l5-11.23h3.2l-8.2 17.81-8.21-17.81h3.24zm18.55 5.48h-2.84V12.61h2.84zm16.95-12.83a2.68 2.68 0 0 0-2.28-1.71 2 2 0 0 0-2.06 1.85c0 1.53 1.92 2.1 3.88 2.92s3.87 2 3.87 4.79a5.46 5.46 0 0 1-5.65 5.44A6 6 0 0 1 69 25.55l2.52-1.07c.71 1.57 1.53 2.67 3.42 2.67a2.54 2.54 0 0 0 2.7-2.56c0-3.73-7.54-2.45-7.54-7.71a4.76 4.76 0 0 1 5-4.73 5 5 0 0 1 4.44 3.1zm15.06 12.83h-2.84V12.61h2.84zM103.7 0h2.84v15h.07a7.17 7.17 0 0 1 5.72-2.85c5 0 8 4.09 8 8.82s-3.09 8.81-8 8.81a7 7 0 0 1-5.72-2.78h-.07v2.31h-2.84zm2.7 20.79c0 3.27 1.92 6.36 5.47 6.36s5.58-2.95 5.58-6.33-2.1-6-5.62-6c-3.3-.04-5.43 2.84-5.43 5.97zm23.82 8.53h-2.84V0h2.84zm10.88-7.75a5.41 5.41 0 0 0 5.47 5.58c2.42 0 4-1.46 5.08-3.45l2.42 1.39a8.44 8.44 0 0 1-7.71 4.69c-5 0-8.18-3.8-8.18-8.6s2.88-9 8.11-9 8.2 4.45 7.92 9.42zm10.13-2.42a5.11 5.11 0 0 0-4.91-4.37 5.29 5.29 0 0 0-5.08 4.37zM186.7 27h-.07a7.12 7.12 0 0 1-5.76 2.77c-4.9 0-8-4.16-8-8.78s3-8.85 8-8.85a7.21 7.21 0 0 1 5.76 2.86h.07V0h2.85v29.32h-2.85zm-10.91-6.22c0 3.27 1.92 6.36 5.48 6.36s5.57-2.95 5.57-6.33-2.09-6-5.61-6c-3.3-.03-5.44 2.85-5.44 5.98zm24.91.79a5.41 5.41 0 0 0 5.47 5.58c2.42 0 4-1.46 5.08-3.45l2.42 1.39a8.44 8.44 0 0 1-7.67 4.69c-5 0-8.17-3.8-8.17-8.6s2.87-9 8.1-9 8.21 4.45 7.92 9.42zm10.13-2.42a5.11 5.11 0 0 0-4.9-4.37 5.29 5.29 0 0 0-5.09 4.37zm17.91-2.66a2.68 2.68 0 0 0-2.28-1.71 2 2 0 0 0-2.06 1.85c0 1.53 1.92 2.1 3.88 2.92s3.87 2 3.87 4.79a5.46 5.46 0 0 1-5.65 5.44 6 6 0 0 1-5.9-4.23l2.52-1.07c.71 1.57 1.53 2.67 3.42 2.67a2.54 2.54 0 0 0 2.7-2.56c0-3.73-7.54-2.45-7.54-7.71a4.76 4.76 0 0 1 5-4.73 5 5 0 0 1 4.44 3.1zm15.06 12.83H241V12.61h2.84zm25.26-.82c0 2.66 0 5-1.7 7.18a8.09 8.09 0 0 1-6.47 3c-4.65 0-8.1-3-8.21-7.68h2.85c0 3.09 2.27 5.05 5.33 5.05 4.4 0 5.37-3.24 5.37-7V27h-.07a7.43 7.43 0 0 1-5.8 2.77c-4.87 0-8-4.09-8-8.74s3.13-8.89 8.07-8.89a7 7 0 0 1 5.73 2.86h.07v-2.39h2.83zm-13.74-7.71c0 3.27 1.91 6.36 5.47 6.36s5.58-2.95 5.58-6.33-2.1-6-5.62-6c-3.3-.04-5.43 2.84-5.43 5.97zm26.4-6.15h.07a5.6 5.6 0 0 1 4.76-2.49c4.62 0 5.68 3.34 5.68 7.25v9.92h-2.84V19.9c0-2.7-.21-5.12-3.51-5.12-3.91 0-4.16 3.63-4.16 6.61v7.93h-2.85V12.61h2.85zm26.93 1.85a2.66 2.66 0 0 0-2.28-1.71 2 2 0 0 0-2.05 1.85c0 1.53 1.91 2.1 3.87 2.92s3.87 2 3.87 4.79a5.46 5.46 0 0 1-5.65 5.44 6 6 0 0 1-5.9-4.23l2.49-1.07c.7 1.57 1.52 2.67 3.4 2.67a2.55 2.55 0 0 0 2.71-2.56c0-3.73-7.53-2.45-7.53-7.71a4.76 4.76 0 0 1 5-4.73 5 5 0 0 1 4.44 3.1zm26.71 12.83h-2.84V0h2.84zm25.22 0h-2.84V27h-.07a7 7 0 0 1-5.76 2.77c-4.91 0-8-4.16-8-8.78s3-8.85 8-8.85a7.23 7.23 0 0 1 5.76 2.86h.07v-2.39h2.84zm-13.75-8.53c0 3.27 1.91 6.36 5.47 6.36s5.58-2.95 5.58-6.33-2.1-6-5.61-6c-3.27-.04-5.44 2.84-5.44 5.97zM369.65 0h2.84v15h.07a7.17 7.17 0 0 1 5.72-2.85c5 0 8 4.09 8 8.82s-3.09 8.81-8 8.81a7 7 0 0 1-5.72-2.78h-.07v2.31h-2.84zm2.7 20.79c0 3.27 1.91 6.36 5.47 6.36s5.58-2.95 5.58-6.33-2.1-6-5.62-6c-3.3-.04-5.43 2.84-5.43 5.97zm24.05 6.96a2 2 0 1 1-4 0 2 2 0 0 1 4 0z" fill="#fff" data-name="レイヤー 1"/></g></svg>