<svg xmlns="http://www.w3.org/2000/svg" width="396.4" height="38.63" viewBox="0 0 396.4 38.63"><defs><style>.cls-1{fill:#fff;}</style></defs><title>invisi_logo</title><g id="レイヤー_2" data-name="レイヤー 2"><g id="レイヤー_1-2" data-name="レイヤー 1"><path class="cls-1" d="M2.85,29.32H0V12.61H2.85Z"/><path class="cls-1" d="M15.88,14.64H16a5.6,5.6,0,0,1,4.76-2.49c4.62,0,5.69,3.34,5.69,7.25v9.92H23.56V19.9c0-2.7-.21-5.12-3.52-5.12-3.91,0-4.16,3.63-4.16,6.61v7.93H13V12.61h2.84Z"/><path class="cls-1" d="M41.61,23.84l5-11.23h3.2L41.61,30.42,33.4,12.61h3.24Z"/><path class="cls-1" d="M60.16,29.32H57.32V12.61h2.84Z"/><path class="cls-1" d="M77.11,16.49a2.68,2.68,0,0,0-2.28-1.71,2,2,0,0,0-2.06,1.85c0,1.53,1.92,2.1,3.88,2.92s3.87,2,3.87,4.79a5.46,5.46,0,0,1-5.65,5.44A6,6,0,0,1,69,25.55l2.52-1.07c.71,1.57,1.53,2.67,3.42,2.67a2.54,2.54,0,0,0,2.7-2.56c0-3.73-7.54-2.45-7.54-7.71a4.76,4.76,0,0,1,5-4.73,5,5,0,0,1,4.44,3.1Z"/><path class="cls-1" d="M92.17,29.32H89.33V12.61h2.84Z"/><path class="cls-1" d="M103.7,0h2.84V15h.07a7.17,7.17,0,0,1,5.72-2.85c5,0,8,4.09,8,8.82s-3.09,8.81-8,8.81A7,7,0,0,1,106.61,27h-.07v2.31H103.7Zm2.7,20.79c0,3.27,1.92,6.36,5.47,6.36s5.58-2.95,5.58-6.33-2.1-6-5.62-6C108.53,14.78,106.4,17.66,106.4,20.79Z"/><path class="cls-1" d="M130.22,29.32h-2.84V0h2.84Z"/><path class="cls-1" d="M141.1,21.57a5.41,5.41,0,0,0,5.47,5.58c2.42,0,4-1.46,5.08-3.45l2.42,1.39a8.44,8.44,0,0,1-7.71,4.69c-5,0-8.18-3.8-8.18-8.6s2.88-9,8.11-9,8.2,4.45,7.92,9.42Zm10.13-2.42a5.11,5.11,0,0,0-4.91-4.37,5.29,5.29,0,0,0-5.08,4.37Z"/><path class="cls-1" d="M186.7,27h-.07a7.12,7.12,0,0,1-5.76,2.77c-4.9,0-8-4.16-8-8.78s3-8.85,8-8.85A7.21,7.21,0,0,1,186.63,15h.07V0h2.85V29.32H186.7Zm-10.91-6.22c0,3.27,1.92,6.36,5.48,6.36s5.57-2.95,5.57-6.33-2.09-6-5.61-6C177.93,14.78,175.79,17.66,175.79,20.79Z"/><path class="cls-1" d="M200.7,21.57a5.41,5.41,0,0,0,5.47,5.58c2.42,0,4-1.46,5.08-3.45l2.42,1.39A8.44,8.44,0,0,1,206,29.78c-5,0-8.17-3.8-8.17-8.6s2.87-9,8.1-9,8.21,4.45,7.92,9.42Zm10.13-2.42a5.11,5.11,0,0,0-4.9-4.37,5.29,5.29,0,0,0-5.09,4.37Z"/><path class="cls-1" d="M228.74,16.49a2.68,2.68,0,0,0-2.28-1.71,2,2,0,0,0-2.06,1.85c0,1.53,1.92,2.1,3.88,2.92s3.87,2,3.87,4.79a5.46,5.46,0,0,1-5.65,5.44,6,6,0,0,1-5.9-4.23l2.52-1.07c.71,1.57,1.53,2.67,3.42,2.67a2.54,2.54,0,0,0,2.7-2.56c0-3.73-7.54-2.45-7.54-7.71a4.76,4.76,0,0,1,5-4.73,5,5,0,0,1,4.44,3.1Z"/><path class="cls-1" d="M243.8,29.32H241V12.61h2.84Z"/><path class="cls-1" d="M269.06,28.5c0,2.66,0,5-1.7,7.18a8.09,8.09,0,0,1-6.47,3c-4.65,0-8.1-3-8.21-7.68h2.85c0,3.09,2.27,5.05,5.33,5.05,4.4,0,5.37-3.24,5.37-7V27h-.07a7.43,7.43,0,0,1-5.8,2.77c-4.87,0-8-4.09-8-8.74s3.13-8.89,8.07-8.89A7,7,0,0,1,266.16,15h.07V12.61h2.83Zm-13.74-7.71c0,3.27,1.91,6.36,5.47,6.36s5.58-2.95,5.58-6.33-2.1-6-5.62-6C257.45,14.78,255.32,17.66,255.32,20.79Z"/><path class="cls-1" d="M281.72,14.64h.07a5.6,5.6,0,0,1,4.76-2.49c4.62,0,5.68,3.34,5.68,7.25v9.92h-2.84V19.9c0-2.7-.21-5.12-3.51-5.12-3.91,0-4.16,3.63-4.16,6.61v7.93h-2.85V12.61h2.85Z"/><path class="cls-1" d="M308.65,16.49a2.66,2.66,0,0,0-2.28-1.71,2,2,0,0,0-2.05,1.85c0,1.53,1.91,2.1,3.87,2.92s3.87,2,3.87,4.79a5.46,5.46,0,0,1-5.65,5.44,6,6,0,0,1-5.9-4.23L303,24.48c.7,1.57,1.52,2.67,3.4,2.67a2.55,2.55,0,0,0,2.71-2.56c0-3.73-7.53-2.45-7.53-7.71a4.76,4.76,0,0,1,5-4.73,5,5,0,0,1,4.44,3.1Z"/><path class="cls-1" d="M335.36,29.32h-2.84V0h2.84Z"/><path class="cls-1" d="M360.58,29.32h-2.84V27h-.07a7,7,0,0,1-5.76,2.77c-4.91,0-8-4.16-8-8.78s3-8.85,8-8.85A7.23,7.23,0,0,1,357.67,15h.07V12.61h2.84Zm-13.75-8.53c0,3.27,1.91,6.36,5.47,6.36s5.58-2.95,5.58-6.33-2.1-6-5.61-6C349,14.78,346.83,17.66,346.83,20.79Z"/><path class="cls-1" d="M369.65,0h2.84V15h.07a7.17,7.17,0,0,1,5.72-2.85c5,0,8,4.09,8,8.82s-3.09,8.81-8,8.81A7,7,0,0,1,372.56,27h-.07v2.31h-2.84Zm2.7,20.79c0,3.27,1.91,6.36,5.47,6.36s5.58-2.95,5.58-6.33-2.1-6-5.62-6C374.48,14.78,372.35,17.66,372.35,20.79Z"/><path class="cls-1" d="M396.4,27.75a2,2,0,1,1-4,0,2,2,0,0,1,4,0Z"/></g></g></svg>