<svg xmlns="http://www.w3.org/2000/svg" width="42.82" height="33.2"><defs><style>.cls-1{fill:#ed3a24}</style></defs><g id="レイヤー_2" data-name="レイヤー 2"><g id="レイヤー_1-2" data-name="レイヤー 1"><path class="cls-1" d="M8.26 9.59H1a1 1 0 0 0-1 1v12a1 1 0 0 0 1 1h7.26L21.55 33a1 1 0 0 0 1.58-.81V1a1 1 0 0 0-1.58-.81zM30.7 33.06l-.45-1.43a14.77 14.77 0 0 0 1.45-.53c.46-.2.93-.42 1.38-.67a13.53 13.53 0 0 0 1.29-.79 15.333 15.333 0 0 0 2.33-1.9 13.55 13.55 0 0 0 1-1.12 15.51 15.51 0 0 0 2.36-3.88 14.77 14.77 0 0 0 .53-1.45q.22-.73.39-1.5t.24-1.56c0-.53.08-1.07.08-1.61s0-1.08-.08-1.61-.14-1-.24-1.56-.24-1-.39-1.5a14.77 14.77 0 0 0-.53-1.45c-.2-.46-.42-.92-.66-1.37s-.51-.89-.79-1.3S38 7 37.72 6.6a13.55 13.55 0 0 0-1-1.12c-.35-.36-.73-.7-1.11-1s-.8-.63-1.22-.91-.86-.55-1.29-.79-.92-.46-1.38-.66a14.77 14.77 0 0 0-1.45-.53L30.7.14a16.5 16.5 0 0 1 1.58.58c.51.22 1 .46 1.51.73s1 .55 1.42.86a16.38 16.38 0 0 1 1.33 1c.42.35.83.73 1.22 1.12s.77.8 1.12 1.22.68.87 1 1.33.6.93.86 1.42a15 15 0 0 1 .73 1.51 16.5 16.5 0 0 1 .53 1.57 16.407 16.407 0 0 1 .69 3.36 17.25 17.25 0 0 1 0 3.52c-.06.57-.15 1.14-.26 1.71s-.26 1.11-.43 1.65-.36 1.07-.58 1.58a15 15 0 0 1-.73 1.51c-.26.49-.56 1-.86 1.42s-.65.91-1 1.33-.73.83-1.12 1.22a17.72 17.72 0 0 1-2.55 2.11c-.46.31-.94.6-1.42.86s-1 .51-1.5.73-1 .41-1.54.58z"/><path class="cls-1" d="M27.84 27.61l-.3-1.47q.48-.11.93-.24t.9-.33a9.47 9.47 0 0 0 1.65-.9 8.12 8.12 0 0 0 .75-.56q.36-.3.69-.63t.63-.69a8.12 8.12 0 0 0 .56-.75c.18-.26.34-.53.49-.8a8.48 8.48 0 0 0 .41-.86c.12-.29.23-.58.33-.89s.17-.61.24-.93.11-.64.15-1 0-.65 0-1v-1c0-.33-.09-.64-.15-1s-.15-.63-.24-.93-.21-.6-.33-.9-.26-.57-.41-.85-.31-.54-.49-.8a8.12 8.12 0 0 0-.56-.75q-.3-.36-.63-.69t-.69-.63a8.12 8.12 0 0 0-.77-.48 9.529 9.529 0 0 0-1.65-.9 9.753 9.753 0 0 0-1.83-.57l.3-1.47c.37.08.73.17 1.08.28s.7.24 1 .38a9.85 9.85 0 0 1 1 .47 8.91 8.91 0 0 1 .93.57 9.13 9.13 0 0 1 .86.64 9.23 9.23 0 0 1 .8.73 9.23 9.23 0 0 1 .73.8c.23.27.44.56.65.86s.39.61.56.93a11.66 11.66 0 0 1 .85 2c.11.35.2.71.28 1.08s.13.74.17 1.11a11.05 11.05 0 0 1 0 2.3c0 .37-.1.74-.17 1.11s-.17.72-.28 1.08a9.81 9.81 0 0 1-.38 1c-.14.34-.3.66-.47 1s-.36.63-.56.93-.42.59-.65.86a9.23 9.23 0 0 1-.73.8c-.25.26-.52.5-.79.73s-.57.44-.87.64-.61.39-.93.57a9.85 9.85 0 0 1-.9.54c-.33.14-.68.27-1 .38s-.79.15-1.16.23z"/><path class="cls-1" d="M26.12 21.81L26 20.32l.38-.06.35-.09L27 20l.33-.15.31-.19.29-.22a2 2 0 0 0 .26-.24 2.16 2.16 0 0 0 .25-.27l.21-.28c.07-.1.13-.21.19-.31a2.52 2.52 0 0 0 .15-.33 3.42 3.42 0 0 0 .13-.34 2.37 2.37 0 0 0 .09-.36 2.25 2.25 0 0 0 .09-.31v-.77a2.32 2.32 0 0 0-.06-.38 2.58 2.58 0 0 0-.09-.35c0-.12-.08-.23-.13-.35a3.13 3.13 0 0 0-.15-.32 3.21 3.21 0 0 0-.19-.31l-.21-.29a3.07 3.07 0 0 0-.25-.26 2 2 0 0 0-.26-.24l-.29-.22-.31-.19a3.13 3.13 0 0 0-.32-.15l-.35-.17-.36-.09c-.12 0-.24 0-.37-.06l.16-1.49a4.5 4.5 0 0 1 .51.08 4.23 4.23 0 0 1 .51.13l.48.18a2.77 2.77 0 0 1 .46.22 4.92 4.92 0 0 1 .43.26 3.79 3.79 0 0 1 .4.3c.13.11.26.22.38.34l.33.37a5 5 0 0 1 .56.83 4.93 4.93 0 0 1 .23.46c.06.16.12.32.17.49a3.92 3.92 0 0 1 .13.49 4.85 4.85 0 0 1 .08.53 4.58 4.58 0 0 1 0 .53 4.89 4.89 0 0 1 0 .54 4.5 4.5 0 0 1-.08.51 4.23 4.23 0 0 1-.13.51c0 .16-.11.32-.17.48s-.14.31-.22.45a4.68 4.68 0 0 1-.27.44 3.79 3.79 0 0 1-.3.4c-.11.13-.22.25-.34.37a4 4 0 0 1-.37.34 3 3 0 0 1-.4.3 4.92 4.92 0 0 1-.43.26 3.88 3.88 0 0 1-.46.22l-.48.18-.5.13z"/></g></g></svg>