<svg xmlns="http://www.w3.org/2000/svg" width="10.83" height="8.66"><g data-name="レイヤー 2"><path d="M10.83 1a4.41 4.41 0 0 1-1.27.34 2.18 2.18 0 0 0 1-1.21 4.58 4.58 0 0 1-1.44.56 2.24 2.24 0 0 0-3.85 1.49 2 2 0 0 0 .07.5A6.26 6.26 0 0 1 .76.4a2.19 2.19 0 0 0-.31 1.1 2.19 2.19 0 0 0 1 1.82 2.26 2.26 0 0 1-1-.27 2 2 0 0 0 .16.78 2.22 2.22 0 0 0 1.61 1.39 2.27 2.27 0 0 1-.59.08 1.84 1.84 0 0 1-.41 0 2.24 2.24 0 0 0 2.07 1.48 4.54 4.54 0 0 1-2.76.93 4.71 4.71 0 0 1-.53 0 6.41 6.41 0 0 0 3.41 1 6.18 6.18 0 0 0 6.17-4.9 5.94 5.94 0 0 0 .15-1.32v-.33A4.72 4.72 0 0 0 10.83 1z" fill="#ed3a24" fill-rule="evenodd" data-name="レイヤー 1"/></g></svg>